<?xml version="1.0" encoding="UTF-8"?>
<svg id="Layer_2" data-name="Layer 2" xmlns="http://www.w3.org/2000/svg" viewBox="0 0 314.1 192.31">
  <defs>
    <style>
      .cls-1 {
        fill: #231f20;
      }
    </style>
  </defs>
  <g id="Layer_1-2" data-name="Layer 1">
    <path class="cls-1" d="M46.04,22.62c-3.16,0-6.05-.79-8.16-2.63-2.37-1.58-3.42-4.47-3.42-8.68,0-3.95,1.05-6.84,3.42-8.68,2.1-1.58,5-2.63,8.16-2.63h52.35c3.68,0,6.58,1.05,8.16,2.63,1.58,2.1,2.37,4.47,2.37,7.63V141.54c0,10-1.58,18.15-4.47,24.47-3.16,6.84-7.37,12.1-12.63,15.78-5.52,3.68-11.84,6.58-18.94,8.16-7.37,1.58-15,2.37-23.15,2.37s-16.31-.79-24.73-2.37c-8.42-1.58-16.84-4.47-24.99-8.42l8.16-28.68c2.1,1.05,4.47,2.1,7.1,3.16,2.63,1.32,5.26,2.37,8.42,3.16,2.63,1.05,5.52,1.58,8.42,2.1,2.63,.53,5.26,.79,7.37,.79,6.05,0,10.79-1.58,14.47-4.47,3.16-2.63,5-8.68,5-17.63V22.62h-12.89Z"/>
    <path class="cls-1" d="M138.11,24.12c-3.16,0-6.05-.79-8.16-2.63-2.37-1.58-3.42-4.47-3.42-8.68,0-3.95,1.05-6.84,3.42-8.68,2.1-1.58,5-2.63,8.16-2.63h49.72c3.68,0,6.58,1.05,8.16,2.63,1.58,2.1,2.37,4.47,2.37,7.63V78.84h65.77V1.5h39.46c3.68,0,6.58,1.05,8.16,2.63,1.58,2.1,2.37,4.47,2.37,7.63V188.81h-49.98V109.62h-65.77v79.19h-49.99V24.12h-10.26Z"/>
  </g>
</svg>