<svg width="214" height="35" viewBox="0 0 214 35" fill="none" xmlns="http://www.w3.org/2000/svg">
<rect x="45" y="1" width="33" height="33" stroke="black" stroke-width="2"/>
<path d="M50.2642 24V9.45455H56.0028C57.1061 9.45455 58.0459 9.66525 58.8224 10.0866C59.599 10.5033 60.1908 11.0833 60.598 11.8267C61.0099 12.5653 61.2159 13.4176 61.2159 14.3835C61.2159 15.3494 61.0076 16.2017 60.5909 16.9403C60.1742 17.679 59.5705 18.2543 58.7798 18.6662C57.9938 19.0781 57.0421 19.2841 55.9247 19.2841H52.267V16.8196H55.4276C56.0194 16.8196 56.5071 16.7178 56.8906 16.5142C57.2789 16.3059 57.5677 16.0194 57.7571 15.6548C57.9512 15.2855 58.0483 14.8617 58.0483 14.3835C58.0483 13.9006 57.9512 13.4792 57.7571 13.1193C57.5677 12.7547 57.2789 12.473 56.8906 12.2741C56.5024 12.0705 56.0099 11.9688 55.4134 11.9688H53.3395V24H50.2642ZM72.2333 16.2017L69.4634 16.3722C69.4161 16.1354 69.3143 15.9223 69.158 15.733C69.0018 15.5388 68.7958 15.3849 68.5401 15.2713C68.2892 15.1529 67.9885 15.0938 67.6381 15.0938C67.1694 15.0938 66.774 15.1932 66.4521 15.392C66.1301 15.5862 65.9691 15.8466 65.9691 16.1733C65.9691 16.4337 66.0733 16.6539 66.2816 16.8338C66.4899 17.0137 66.8474 17.1581 67.354 17.267L69.3285 17.6648C70.3891 17.8826 71.1798 18.233 71.7006 18.7159C72.2215 19.1989 72.4819 19.8333 72.4819 20.6193C72.4819 21.3343 72.2712 21.9616 71.8498 22.5014C71.4331 23.0412 70.8602 23.4626 70.131 23.7656C69.4066 24.0639 68.5709 24.2131 67.6239 24.2131C66.1798 24.2131 65.0292 23.9124 64.1722 23.3111C63.32 22.705 62.8204 21.8812 62.6737 20.8395L65.6495 20.6832C65.7395 21.1236 65.9573 21.4598 66.3029 21.6918C66.6486 21.919 67.0913 22.0327 67.631 22.0327C68.1613 22.0327 68.5875 21.9309 68.9094 21.7273C69.2362 21.5189 69.4019 21.2514 69.4066 20.9247C69.4019 20.6501 69.2859 20.4252 69.0586 20.25C68.8313 20.0701 68.4809 19.9328 68.0075 19.8381L66.1183 19.4616C65.0529 19.2486 64.2598 18.8793 63.739 18.3537C63.2229 17.8281 62.9648 17.1581 62.9648 16.3438C62.9648 15.643 63.1542 15.0393 63.533 14.5327C63.9165 14.026 64.454 13.6354 65.1452 13.3608C65.8413 13.0862 66.6557 12.9489 67.5884 12.9489C68.9663 12.9489 70.0505 13.2401 70.8413 13.8224C71.6367 14.4048 72.1007 15.1979 72.2333 16.2017Z" fill="black"/>
<rect x="90" y="1" width="33" height="33" stroke="black" stroke-width="2"/>
<path d="M99.7713 24H96.4759L101.497 9.45455H105.46L110.474 24H107.179L103.536 12.7784H103.422L99.7713 24ZM99.5653 18.2827H107.349V20.6832H99.5653V18.2827ZM112.227 24V13.0909H115.252V24H112.227ZM113.747 11.6847C113.297 11.6847 112.911 11.5355 112.589 11.2372C112.272 10.9342 112.113 10.572 112.113 10.1506C112.113 9.7339 112.272 9.37642 112.589 9.07812C112.911 8.77509 113.297 8.62358 113.747 8.62358C114.197 8.62358 114.58 8.77509 114.897 9.07812C115.219 9.37642 115.38 9.7339 115.38 10.1506C115.38 10.572 115.219 10.9342 114.897 11.2372C114.58 11.5355 114.197 11.6847 113.747 11.6847Z" fill="black"/>
<rect x="135" y="1" width="33" height="33" stroke="black" stroke-width="2"/>
<path d="M146.339 9.45455V24H143.264V9.45455H146.339ZM152.833 24.1776C152.004 24.1776 151.254 23.9645 150.581 23.5384C149.914 23.1075 149.383 22.4754 148.99 21.642C148.602 20.804 148.408 19.7765 148.408 18.5597C148.408 17.3097 148.609 16.2704 149.012 15.4418C149.414 14.6084 149.949 13.9858 150.617 13.5739C151.289 13.1572 152.025 12.9489 152.826 12.9489C153.436 12.9489 153.945 13.053 154.353 13.2614C154.765 13.465 155.096 13.7206 155.347 14.0284C155.603 14.3314 155.797 14.6297 155.929 14.9233H156.022V9.45455H159.04V24H156.057V22.2528H155.929C155.787 22.5559 155.586 22.8565 155.326 23.1548C155.07 23.4484 154.736 23.6922 154.324 23.8864C153.917 24.0805 153.42 24.1776 152.833 24.1776ZM153.792 21.7699C154.279 21.7699 154.691 21.6373 155.027 21.3722C155.368 21.1023 155.629 20.7259 155.809 20.2429C155.993 19.7599 156.086 19.1941 156.086 18.5455C156.086 17.8968 155.996 17.3333 155.816 16.8551C155.636 16.3769 155.375 16.0076 155.034 15.7472C154.694 15.4867 154.279 15.3565 153.792 15.3565C153.294 15.3565 152.875 15.4915 152.534 15.7614C152.194 16.0312 151.935 16.4053 151.76 16.8835C151.585 17.3617 151.498 17.9157 151.498 18.5455C151.498 19.1799 151.585 19.741 151.76 20.2287C151.94 20.7116 152.198 21.0904 152.534 21.3651C152.875 21.6349 153.294 21.7699 153.792 21.7699Z" fill="black"/>
<rect x="180" y="1" width="33" height="33" stroke="black" stroke-width="2"/>
<path d="M186.771 24H183.476L188.497 9.45455H192.46L197.474 24H194.179L190.536 12.7784H190.422L186.771 24ZM186.565 18.2827H194.349V20.6832H186.565V18.2827ZM203.632 24.2131C202.51 24.2131 201.544 23.9858 200.734 23.5312C199.929 23.072 199.309 22.4233 198.874 21.5852C198.438 20.7424 198.22 19.7457 198.22 18.5952C198.22 17.473 198.438 16.4882 198.874 15.6406C199.309 14.7931 199.922 14.1326 200.713 13.6591C201.509 13.1856 202.441 12.9489 203.511 12.9489C204.231 12.9489 204.901 13.0649 205.521 13.2969C206.146 13.5241 206.691 13.8674 207.155 14.3267C207.624 14.786 207.988 15.3636 208.249 16.0597C208.509 16.7509 208.639 17.5606 208.639 18.4886V19.3196H199.428V17.4446H205.791C205.791 17.009 205.696 16.6231 205.507 16.2869C205.318 15.9508 205.055 15.688 204.719 15.4986C204.387 15.3045 204.001 15.2074 203.561 15.2074C203.102 15.2074 202.695 15.3139 202.339 15.527C201.989 15.7353 201.714 16.017 201.516 16.3722C201.317 16.7225 201.215 17.1132 201.21 17.544V19.3267C201.21 19.8665 201.31 20.3329 201.509 20.7259C201.712 21.1188 201.999 21.4219 202.368 21.6349C202.737 21.848 203.175 21.9545 203.682 21.9545C204.018 21.9545 204.326 21.9072 204.605 21.8125C204.884 21.7178 205.124 21.5758 205.322 21.3864C205.521 21.197 205.673 20.965 205.777 20.6903L208.575 20.875C208.433 21.5473 208.142 22.1345 207.702 22.6364C207.266 23.1335 206.703 23.5218 206.011 23.8011C205.325 24.0758 204.532 24.2131 203.632 24.2131Z" fill="black"/>
<rect x="1" y="1" width="33" height="33" stroke="black" stroke-width="2"/>
<rect x="9.75" y="4.75" width="16.5" height="7.5" rx="3.75" stroke="black" stroke-width="1.5"/>
<mask id="path-11-inside-1_124_47" fill="white">
<path fill-rule="evenodd" clip-rule="evenodd" d="M18.0001 12.6667H14C11.4227 12.6667 9.33337 14.756 9.33337 17.3333C9.33337 19.9107 11.4227 22 14 22H18.0001V12.6667Z"/>
</mask>
<path d="M18.0001 12.6667H19.5001V11.1667H18.0001V12.6667ZM18.0001 22V23.5H19.5001V22H18.0001ZM14 14.1667H18.0001V11.1667H14V14.1667ZM10.8334 17.3333C10.8334 15.5844 12.2511 14.1667 14 14.1667V11.1667C10.5943 11.1667 7.83337 13.9276 7.83337 17.3333H10.8334ZM14 20.5C12.2511 20.5 10.8334 19.0822 10.8334 17.3333H7.83337C7.83337 20.7391 10.5943 23.5 14 23.5V20.5ZM18.0001 20.5H14V23.5H18.0001V20.5ZM19.5001 22V12.6667H16.5001V22H19.5001Z" fill="black" mask="url(#path-11-inside-1_124_47)"/>
<circle cx="22.5" cy="17.5" r="3.75" stroke="black" stroke-width="1.5"/>
<path d="M17 26.3077V27.0577H17.75V26.3077H17ZM16.9888 26.3077V25.5577H16.2915L16.2408 26.2532L16.9888 26.3077ZM17 22H17.75V21.25H17V22ZM17.75 26.3077V26H16.25V26.3077H17.75ZM16.9888 27.0577H17V25.5577H16.9888V27.0577ZM16.2408 26.2532C16.1166 27.9567 14.762 29.25 13.1667 29.25V30.75C15.6071 30.75 17.5599 28.7895 17.7368 26.3622L16.2408 26.2532ZM13.1667 29.25C11.4936 29.25 10.0834 27.8253 10.0834 26H8.58337C8.58337 28.5929 10.6056 30.75 13.1667 30.75V29.25ZM10.0834 26C10.0834 24.1747 11.4936 22.75 13.1667 22.75V21.25C10.6056 21.25 8.58337 23.4071 8.58337 26H10.0834ZM17 21.25H13.1667V22.75H17V21.25ZM17.75 26V22H16.25V26H17.75Z" fill="black"/>
</svg>
