<svg width="27" height="44" viewBox="0 0 27 44" fill="none" xmlns="http://www.w3.org/2000/svg">
<circle cx="13.5" cy="13.5" r="13.5" fill="white" fill-opacity="0.9"/>
<path d="M3.57955 41.1364C2.96591 41.1364 2.4375 40.9915 1.99432 40.7017C1.55114 40.4119 1.21023 40.0128 0.971591 39.5043C0.732955 38.9957 0.613636 38.4148 0.613636 37.7614C0.613636 37.0966 0.735795 36.5099 0.980114 36.0014C1.22727 35.4901 1.57102 35.0909 2.01136 34.804C2.45455 34.5142 2.97159 34.3693 3.5625 34.3693C4.02273 34.3693 4.4375 34.4545 4.80682 34.625C5.17614 34.7955 5.47869 35.0341 5.71449 35.3409C5.95028 35.6477 6.09659 36.0057 6.15341 36.4148H5.14773C5.07102 36.1165 4.90057 35.8523 4.63636 35.6222C4.375 35.3892 4.02273 35.2727 3.57955 35.2727C3.1875 35.2727 2.84375 35.375 2.5483 35.5795C2.25568 35.7812 2.02699 36.0668 1.86222 36.4361C1.70028 36.8026 1.61932 37.233 1.61932 37.7273C1.61932 38.233 1.69886 38.6733 1.85795 39.0483C2.01989 39.4233 2.24716 39.7145 2.53977 39.9219C2.83523 40.1293 3.18182 40.233 3.57955 40.233C3.84091 40.233 4.07812 40.1875 4.29119 40.0966C4.50426 40.0057 4.68466 39.875 4.83239 39.7045C4.98011 39.5341 5.08523 39.3295 5.14773 39.0909H6.15341C6.09659 39.4773 5.95597 39.8253 5.73153 40.1349C5.50994 40.4418 5.21591 40.6861 4.84943 40.8679C4.4858 41.0469 4.0625 41.1364 3.57955 41.1364ZM8.62926 32.2727V41H7.62358V32.2727H8.62926ZM10.4712 41V34.4545H11.4769V41H10.4712ZM10.9826 33.3636C10.7866 33.3636 10.6175 33.2969 10.4755 33.1634C10.3363 33.0298 10.2667 32.8693 10.2667 32.6818C10.2667 32.4943 10.3363 32.3338 10.4755 32.2003C10.6175 32.0668 10.7866 32 10.9826 32C11.1786 32 11.3462 32.0668 11.4854 32.2003C11.6275 32.3338 11.6985 32.4943 11.6985 32.6818C11.6985 32.8693 11.6275 33.0298 11.4854 33.1634C11.3462 33.2969 11.1786 33.3636 10.9826 33.3636ZM15.978 41.1364C15.3643 41.1364 14.8359 40.9915 14.3928 40.7017C13.9496 40.4119 13.6087 40.0128 13.37 39.5043C13.1314 38.9957 13.0121 38.4148 13.0121 37.7614C13.0121 37.0966 13.1342 36.5099 13.3786 36.0014C13.6257 35.4901 13.9695 35.0909 14.4098 34.804C14.853 34.5142 15.37 34.3693 15.9609 34.3693C16.4212 34.3693 16.8359 34.4545 17.2053 34.625C17.5746 34.7955 17.8771 35.0341 18.1129 35.3409C18.3487 35.6477 18.495 36.0057 18.5518 36.4148H17.5462C17.4695 36.1165 17.299 35.8523 17.0348 35.6222C16.7734 35.3892 16.4212 35.2727 15.978 35.2727C15.5859 35.2727 15.2422 35.375 14.9467 35.5795C14.6541 35.7812 14.4254 36.0668 14.2607 36.4361C14.0987 36.8026 14.0178 37.233 14.0178 37.7273C14.0178 38.233 14.0973 38.6733 14.2564 39.0483C14.4183 39.4233 14.6456 39.7145 14.9382 39.9219C15.2337 40.1293 15.5803 40.233 15.978 40.233C16.2393 40.233 16.4766 40.1875 16.6896 40.0966C16.9027 40.0057 17.0831 39.875 17.2308 39.7045C17.3786 39.5341 17.4837 39.3295 17.5462 39.0909H18.5518C18.495 39.4773 18.3544 39.8253 18.13 40.1349C17.9084 40.4418 17.6143 40.6861 17.2479 40.8679C16.8842 41.0469 16.4609 41.1364 15.978 41.1364ZM20.9595 38.6136L20.9425 37.3693H21.147L24.0107 34.4545H25.255L22.2038 37.5398H22.1186L20.9595 38.6136ZM20.022 41V32.2727H21.0277V41H20.022ZM24.1811 41L21.6243 37.7614L22.3402 37.0625L25.4595 41H24.1811Z" fill="black"/>
</svg>
