<svg width="720" height="415" viewBox="0 0 720 415" fill="none" xmlns="http://www.w3.org/2000/svg">
<path d="M188.837 0.272715H298.203V280.474C298.07 307.084 291.351 330.501 278.046 350.724C264.874 370.815 246.647 386.515 223.363 397.824C200.213 409 173.536 414.588 143.334 414.588C117.123 414.588 93.1744 410.064 71.4874 401.017C49.8004 391.837 32.504 377.467 19.5982 357.909C6.69241 338.218 0.306049 312.672 0.439098 281.273H111.402C111.801 291.518 113.531 300.166 116.591 307.217C119.784 314.269 124.175 319.591 129.763 323.183C135.484 326.643 142.403 328.372 150.519 328.372C158.768 328.372 165.686 326.576 171.274 322.984C176.995 319.391 181.32 314.069 184.247 307.018C187.174 299.833 188.704 290.985 188.837 280.474V0.272715ZM350.791 409V0.272715H461.754V159.932H608.64V0.272715H719.604V409H608.64V249.341H461.754V409H350.791Z" fill="black"/>
</svg>
