<svg width="124" height="35" viewBox="0 0 124 35" fill="none" xmlns="http://www.w3.org/2000/svg">
<rect x="1" y="1" width="33" height="33" stroke="black" stroke-width="2"/>
<path d="M25.5 12H9L10.5 29.5L17 31.5L24 29.5L25.5 12Z" stroke="black"/>
<path fill-rule="evenodd" clip-rule="evenodd" d="M12 16H22.1173V18H14.2345L14.5123 20.5H22.2345L21.5371 26.7772L17.0945 28.0465L13.2803 26.7751L12.6471 24.2425L14.5874 23.7575L14.9543 25.2249L17.14 25.9535L19.6975 25.2228L20 22.5H12.7222L12 16Z" fill="black"/>
<path d="M6.50568 10V4.18182H7.7358V6.58239H10.233V4.18182H11.4602V10H10.233V7.59659H7.7358V10H6.50568ZM12.2528 5.19602V4.18182H17.0312V5.19602H15.25V10H14.0341V5.19602H12.2528ZM17.8182 4.18182H19.3352L20.9375 8.09091H21.0057L22.608 4.18182H24.125V10H22.9318V6.21307H22.8835L21.3778 9.97159H20.5653L19.0597 6.19886H19.0114V10H17.8182V4.18182ZM25.1385 10V4.18182H26.3686V8.9858H28.8629V10H25.1385Z" fill="black"/>
<rect x="90" y="1" width="33" height="33" stroke="black" stroke-width="2"/>
<path d="M114.5 12H98L99.5 29.5L106 31.5L113 29.5L114.5 12Z" stroke="black"/>
<path d="M103.835 4.18182H105.051V8.23864C105.051 8.61364 104.967 8.93939 104.798 9.21591C104.632 9.49242 104.4 9.70549 104.102 9.85511C103.805 10.0047 103.459 10.0795 103.065 10.0795C102.715 10.0795 102.397 10.018 102.111 9.89489C101.827 9.76989 101.601 9.58049 101.435 9.3267C101.268 9.07102 101.186 8.75 101.188 8.36364H102.412C102.416 8.51705 102.447 8.64867 102.506 8.75852C102.566 8.86648 102.649 8.94981 102.753 9.00852C102.859 9.06534 102.984 9.09375 103.128 9.09375C103.279 9.09375 103.407 9.06155 103.511 8.99716C103.617 8.93087 103.698 8.83428 103.753 8.70739C103.808 8.58049 103.835 8.42424 103.835 8.23864V4.18182ZM109.224 5.85511C109.202 5.62595 109.104 5.44792 108.932 5.32102C108.759 5.19413 108.526 5.13068 108.23 5.13068C108.029 5.13068 107.86 5.15909 107.722 5.21591C107.583 5.27083 107.477 5.34754 107.403 5.44602C107.331 5.54451 107.295 5.65625 107.295 5.78125C107.292 5.88542 107.313 5.97633 107.361 6.05398C107.41 6.13163 107.477 6.19886 107.562 6.25568C107.648 6.31061 107.746 6.3589 107.858 6.40057C107.97 6.44034 108.089 6.47443 108.216 6.50284L108.739 6.62784C108.992 6.68466 109.225 6.76042 109.438 6.85511C109.65 6.94981 109.833 7.06629 109.989 7.20455C110.144 7.3428 110.264 7.50568 110.349 7.69318C110.437 7.88068 110.481 8.09564 110.483 8.33807C110.481 8.69413 110.39 9.00284 110.21 9.2642C110.032 9.52367 109.775 9.72538 109.438 9.86932C109.102 10.0114 108.698 10.0824 108.224 10.0824C107.755 10.0824 107.346 10.0104 106.997 9.86648C106.651 9.72254 106.38 9.50947 106.185 9.22727C105.991 8.94318 105.89 8.59186 105.881 8.1733H107.071C107.084 8.36837 107.14 8.53125 107.239 8.66193C107.339 8.79072 107.473 8.88826 107.639 8.95455C107.808 9.01894 107.998 9.05114 108.21 9.05114C108.419 9.05114 108.599 9.02083 108.753 8.96023C108.908 8.89962 109.028 8.81534 109.114 8.70739C109.199 8.59943 109.241 8.47538 109.241 8.33523C109.241 8.20455 109.203 8.0947 109.125 8.00568C109.049 7.91667 108.938 7.84091 108.79 7.77841C108.644 7.71591 108.465 7.65909 108.253 7.60795L107.619 7.44886C107.129 7.32955 106.741 7.14299 106.457 6.8892C106.173 6.63542 106.032 6.29356 106.034 5.86364C106.032 5.51136 106.126 5.2036 106.315 4.94034C106.507 4.67708 106.769 4.47159 107.102 4.32386C107.436 4.17614 107.814 4.10227 108.239 4.10227C108.67 4.10227 109.047 4.17614 109.369 4.32386C109.693 4.47159 109.945 4.67708 110.125 4.94034C110.305 5.2036 110.398 5.50852 110.403 5.85511H109.224Z" fill="black"/>
<path fill-rule="evenodd" clip-rule="evenodd" d="M101.722 15H110.437L111.098 18.3039L109.137 18.6961L108.797 17H103.512L103.235 19.5H111.222L110.545 26.275L106.117 27.54L101.617 26.2543V23H103.617V24.7457L106.117 25.46L108.69 24.725L109.012 21.5H101L101.722 15Z" fill="black"/>
<rect x="46" y="1" width="33" height="33" stroke="black" stroke-width="2"/>
<path d="M70.5 12H54L55.5 29.5L62 31.5L69 29.5L70.5 12Z" stroke="black"/>
<path d="M59.6392 6.21875H58.3949C58.3722 6.05777 58.3258 5.91477 58.2557 5.78977C58.1856 5.66288 58.0956 5.55492 57.9858 5.46591C57.8759 5.37689 57.7491 5.30871 57.6051 5.26136C57.4631 5.21402 57.3087 5.19034 57.142 5.19034C56.8409 5.19034 56.5786 5.26515 56.3551 5.41477C56.1316 5.5625 55.9583 5.77841 55.8352 6.0625C55.7121 6.3447 55.6506 6.6875 55.6506 7.09091C55.6506 7.50568 55.7121 7.85417 55.8352 8.13636C55.9602 8.41856 56.1345 8.63163 56.358 8.77557C56.5814 8.91951 56.84 8.99148 57.1335 8.99148C57.2983 8.99148 57.4508 8.9697 57.5909 8.92614C57.733 8.88258 57.8589 8.81913 57.9688 8.7358C58.0786 8.65057 58.1695 8.54735 58.2415 8.42614C58.3153 8.30492 58.3665 8.16667 58.3949 8.01136L59.6392 8.01705C59.607 8.28409 59.5265 8.54167 59.3977 8.78977C59.2708 9.03598 59.0994 9.25663 58.8835 9.4517C58.6695 9.64489 58.4138 9.7983 58.1165 9.91193C57.821 10.0237 57.4867 10.0795 57.1136 10.0795C56.5947 10.0795 56.1307 9.96212 55.7216 9.72727C55.3144 9.49242 54.9924 9.15246 54.7557 8.70739C54.5208 8.26231 54.4034 7.72348 54.4034 7.09091C54.4034 6.45644 54.5227 5.91667 54.7614 5.47159C55 5.02652 55.3239 4.6875 55.733 4.45455C56.142 4.2197 56.6023 4.10227 57.1136 4.10227C57.4508 4.10227 57.7633 4.14962 58.0511 4.24432C58.3409 4.33902 58.5975 4.47727 58.821 4.65909C59.0445 4.83901 59.2263 5.05966 59.3665 5.32102C59.5085 5.58239 59.5994 5.88163 59.6392 6.21875ZM63.6776 5.85511C63.6548 5.62595 63.5573 5.44792 63.3849 5.32102C63.2126 5.19413 62.9787 5.13068 62.6832 5.13068C62.4825 5.13068 62.313 5.15909 62.1747 5.21591C62.0365 5.27083 61.9304 5.34754 61.8565 5.44602C61.7846 5.54451 61.7486 5.65625 61.7486 5.78125C61.7448 5.88542 61.7666 5.97633 61.8139 6.05398C61.8632 6.13163 61.9304 6.19886 62.0156 6.25568C62.1009 6.31061 62.1993 6.3589 62.3111 6.40057C62.4228 6.44034 62.5421 6.47443 62.669 6.50284L63.1918 6.62784C63.4455 6.68466 63.6785 6.76042 63.8906 6.85511C64.1027 6.94981 64.2865 7.06629 64.4418 7.20455C64.5971 7.3428 64.7173 7.50568 64.8026 7.69318C64.8897 7.88068 64.9342 8.09564 64.9361 8.33807C64.9342 8.69413 64.8433 9.00284 64.6634 9.2642C64.4853 9.52367 64.2277 9.72538 63.8906 9.86932C63.5554 10.0114 63.151 10.0824 62.6776 10.0824C62.2079 10.0824 61.7988 10.0104 61.4503 9.86648C61.1037 9.72254 60.8329 9.50947 60.6378 9.22727C60.4446 8.94318 60.3433 8.59186 60.3338 8.1733H61.5241C61.5374 8.36837 61.5933 8.53125 61.6918 8.66193C61.7921 8.79072 61.9257 8.88826 62.0923 8.95455C62.2609 9.01894 62.4512 9.05114 62.6634 9.05114C62.8717 9.05114 63.0526 9.02083 63.206 8.96023C63.3613 8.89962 63.4815 8.81534 63.5668 8.70739C63.652 8.59943 63.6946 8.47538 63.6946 8.33523C63.6946 8.20455 63.6558 8.0947 63.5781 8.00568C63.5024 7.91667 63.3906 7.84091 63.2429 7.77841C63.0971 7.71591 62.9181 7.65909 62.706 7.60795L62.0724 7.44886C61.5819 7.32955 61.1946 7.14299 60.9105 6.8892C60.6264 6.63542 60.4853 6.29356 60.4872 5.86364C60.4853 5.51136 60.5791 5.2036 60.7685 4.94034C60.9598 4.67708 61.2221 4.47159 61.5554 4.32386C61.8887 4.17614 62.2675 4.10227 62.6918 4.10227C63.1236 4.10227 63.5005 4.17614 63.8224 4.32386C64.1463 4.47159 64.3982 4.67708 64.5781 4.94034C64.758 5.2036 64.8509 5.50852 64.8565 5.85511H63.6776ZM68.9197 5.85511C68.897 5.62595 68.7995 5.44792 68.6271 5.32102C68.4548 5.19413 68.2209 5.13068 67.9254 5.13068C67.7247 5.13068 67.5552 5.15909 67.4169 5.21591C67.2786 5.27083 67.1726 5.34754 67.0987 5.44602C67.0268 5.54451 66.9908 5.65625 66.9908 5.78125C66.987 5.88542 67.0088 5.97633 67.0561 6.05398C67.1054 6.13163 67.1726 6.19886 67.2578 6.25568C67.343 6.31061 67.4415 6.3589 67.5533 6.40057C67.665 6.44034 67.7843 6.47443 67.9112 6.50284L68.4339 6.62784C68.6877 6.68466 68.9207 6.76042 69.1328 6.85511C69.3449 6.94981 69.5286 7.06629 69.6839 7.20455C69.8393 7.3428 69.9595 7.50568 70.0447 7.69318C70.1319 7.88068 70.1764 8.09564 70.1783 8.33807C70.1764 8.69413 70.0855 9.00284 69.9055 9.2642C69.7275 9.52367 69.4699 9.72538 69.1328 9.86932C68.7976 10.0114 68.3932 10.0824 67.9197 10.0824C67.45 10.0824 67.041 10.0104 66.6925 9.86648C66.3459 9.72254 66.075 9.50947 65.88 9.22727C65.6868 8.94318 65.5855 8.59186 65.576 8.1733H66.7663C66.7796 8.36837 66.8355 8.53125 66.9339 8.66193C67.0343 8.79072 67.1679 8.88826 67.3345 8.95455C67.5031 9.01894 67.6934 9.05114 67.9055 9.05114C68.1139 9.05114 68.2947 9.02083 68.4482 8.96023C68.6035 8.89962 68.7237 8.81534 68.8089 8.70739C68.8942 8.59943 68.9368 8.47538 68.9368 8.33523C68.9368 8.20455 68.898 8.0947 68.8203 8.00568C68.7446 7.91667 68.6328 7.84091 68.4851 7.77841C68.3393 7.71591 68.1603 7.65909 67.9482 7.60795L67.3146 7.44886C66.8241 7.32955 66.4368 7.14299 66.1527 6.8892C65.8686 6.63542 65.7275 6.29356 65.7294 5.86364C65.7275 5.51136 65.8213 5.2036 66.0107 4.94034C66.2019 4.67708 66.4643 4.47159 66.7976 4.32386C67.1309 4.17614 67.5097 4.10227 67.9339 4.10227C68.3658 4.10227 68.7427 4.17614 69.0646 4.32386C69.3885 4.47159 69.6404 4.67708 69.8203 4.94034C70.0002 5.2036 70.093 5.50852 70.0987 5.85511H68.9197Z" fill="black"/>
<path fill-rule="evenodd" clip-rule="evenodd" d="M63.3074 17H57V15H67V17.677L61.1926 20H67.1173L66.4295 26.1896L62 28.088L57.6226 26.2119L57.0194 23.1961L58.9806 22.8039L59.3774 24.7881L62 25.912L64.5705 24.8104L64.8827 22H57.5V19.323L63.3074 17Z" fill="black"/>
</svg>
