<svg width="155" height="30" viewBox="0 0 155 30" fill="none" xmlns="http://www.w3.org/2000/svg">
<path d="M0.6875 29V2.81818H11.9886C13.9318 2.81818 15.6321 3.2017 17.0895 3.96875C18.5469 4.73579 19.6804 5.81392 20.4901 7.20312C21.2997 8.59233 21.7045 10.2159 21.7045 12.0739C21.7045 13.9489 21.2869 15.5724 20.4517 16.9446C19.625 18.3168 18.4616 19.3736 16.9616 20.1151C15.4702 20.8565 13.7273 21.2273 11.733 21.2273H4.98295V15.7045H10.3011C11.1364 15.7045 11.848 15.5597 12.4361 15.2699C13.0327 14.9716 13.4886 14.5497 13.804 14.0043C14.1278 13.4588 14.2898 12.8153 14.2898 12.0739C14.2898 11.3239 14.1278 10.6847 13.804 10.1562C13.4886 9.61932 13.0327 9.21023 12.4361 8.92898C11.848 8.6392 11.1364 8.49432 10.3011 8.49432H7.79545V29H0.6875ZM33.4531 29.358C31.3224 29.358 29.4986 28.9361 27.9815 28.0923C26.4645 27.2401 25.3011 26.0554 24.4915 24.5384C23.6818 23.0128 23.277 21.2443 23.277 19.233C23.277 17.2216 23.6818 15.4574 24.4915 13.9403C25.3011 12.4148 26.4645 11.2301 27.9815 10.3864C29.4986 9.53409 31.3224 9.10795 33.4531 9.10795C35.5838 9.10795 37.4077 9.53409 38.9247 10.3864C40.4418 11.2301 41.6051 12.4148 42.4148 13.9403C43.2244 15.4574 43.6293 17.2216 43.6293 19.233C43.6293 21.2443 43.2244 23.0128 42.4148 24.5384C41.6051 26.0554 40.4418 27.2401 38.9247 28.0923C37.4077 28.9361 35.5838 29.358 33.4531 29.358ZM33.5043 24.142C34.1009 24.142 34.6165 23.9418 35.0511 23.5412C35.4858 23.1406 35.8224 22.5696 36.0611 21.8281C36.2997 21.0866 36.419 20.2045 36.419 19.1818C36.419 18.1506 36.2997 17.2685 36.0611 16.5355C35.8224 15.794 35.4858 15.223 35.0511 14.8224C34.6165 14.4219 34.1009 14.2216 33.5043 14.2216C32.8736 14.2216 32.3324 14.4219 31.8807 14.8224C31.429 15.223 31.0838 15.794 30.8452 16.5355C30.6065 17.2685 30.4872 18.1506 30.4872 19.1818C30.4872 20.2045 30.6065 21.0866 30.8452 21.8281C31.0838 22.5696 31.429 23.1406 31.8807 23.5412C32.3324 23.9418 32.8736 24.142 33.5043 24.142ZM46.4929 29V9.36364H53.3452V13.0966H53.5497C53.9077 11.7159 54.4744 10.706 55.25 10.0668C56.0341 9.42756 56.9503 9.10795 57.9986 9.10795C58.3054 9.10795 58.608 9.13352 58.9062 9.18466C59.2131 9.22727 59.5071 9.29119 59.7884 9.37642V15.3977C59.4389 15.2784 59.0085 15.1889 58.4972 15.1293C57.9858 15.0696 57.5469 15.0398 57.1804 15.0398C56.4901 15.0398 55.8679 15.1974 55.3139 15.5128C54.7685 15.8196 54.3381 16.2543 54.0227 16.8168C53.7074 17.3707 53.5497 18.0227 53.5497 18.7727V29H46.4929ZM74.6211 9.36364V14.4773H61.6836V9.36364H74.6211ZM64.1893 4.65909H71.2461V22.6847C71.2461 22.9574 71.293 23.1875 71.3867 23.375C71.4805 23.554 71.6254 23.6903 71.8214 23.7841C72.0174 23.8693 72.2688 23.9119 72.5756 23.9119C72.7887 23.9119 73.0359 23.8864 73.3171 23.8352C73.6069 23.7841 73.82 23.7415 73.9563 23.7074L74.979 28.6676C74.6637 28.7614 74.212 28.8764 73.6239 29.0128C73.0444 29.1491 72.354 29.2386 71.5529 29.2812C69.9336 29.3665 68.5742 29.2003 67.4748 28.7827C66.3754 28.3565 65.5487 27.6875 64.9947 26.7756C64.4407 25.8636 64.1722 24.7216 64.1893 23.3494V4.65909ZM89.2621 9.36364V14.4773H76.12V9.36364H89.2621ZM78.6257 29V8.80114C78.6257 7.18182 78.9155 5.83949 79.495 4.77415C80.0746 3.70881 80.8928 2.91193 81.9496 2.38352C83.0064 1.85511 84.2507 1.59091 85.6825 1.59091C86.5774 1.59091 87.4467 1.65909 88.2905 1.79545C89.1428 1.93182 89.7734 2.05114 90.1825 2.15341L89.1598 7.21591C88.9041 7.1392 88.6058 7.07954 88.2649 7.03693C87.924 6.98579 87.6257 6.96023 87.37 6.96023C86.7053 6.96023 86.2578 7.10085 86.0277 7.3821C85.7976 7.66335 85.6825 8.03409 85.6825 8.49432V29H78.6257ZM100.848 29.358C98.717 29.358 96.8931 28.9361 95.3761 28.0923C93.859 27.2401 92.6957 26.0554 91.886 24.5384C91.0763 23.0128 90.6715 21.2443 90.6715 19.233C90.6715 17.2216 91.0763 15.4574 91.886 13.9403C92.6957 12.4148 93.859 11.2301 95.3761 10.3864C96.8931 9.53409 98.717 9.10795 100.848 9.10795C102.978 9.10795 104.802 9.53409 106.319 10.3864C107.836 11.2301 109 12.4148 109.809 13.9403C110.619 15.4574 111.024 17.2216 111.024 19.233C111.024 21.2443 110.619 23.0128 109.809 24.5384C109 26.0554 107.836 27.2401 106.319 28.0923C104.802 28.9361 102.978 29.358 100.848 29.358ZM100.899 24.142C101.495 24.142 102.011 23.9418 102.446 23.5412C102.88 23.1406 103.217 22.5696 103.456 21.8281C103.694 21.0866 103.814 20.2045 103.814 19.1818C103.814 18.1506 103.694 17.2685 103.456 16.5355C103.217 15.794 102.88 15.223 102.446 14.8224C102.011 14.4219 101.495 14.2216 100.899 14.2216C100.268 14.2216 99.7269 14.4219 99.2752 14.8224C98.8235 15.223 98.4783 15.794 98.2397 16.5355C98.0011 17.2685 97.8817 18.1506 97.8817 19.1818C97.8817 20.2045 98.0011 21.0866 98.2397 21.8281C98.4783 22.5696 98.8235 23.1406 99.2752 23.5412C99.7269 23.9418 100.268 24.142 100.899 24.142ZM120.944 2.81818V29H113.887V2.81818H120.944ZM124.54 29V9.36364H131.597V29H124.54ZM128.068 7.31818C127.114 7.31818 126.295 7.00284 125.614 6.37216C124.932 5.74148 124.591 4.98295 124.591 4.09659C124.591 3.21023 124.932 2.4517 125.614 1.82102C126.295 1.19034 127.114 0.875 128.068 0.875C129.031 0.875 129.849 1.19034 130.523 1.82102C131.205 2.4517 131.545 3.21023 131.545 4.09659C131.545 4.98295 131.205 5.74148 130.523 6.37216C129.849 7.00284 129.031 7.31818 128.068 7.31818ZM144.652 29.358C142.522 29.358 140.698 28.9361 139.181 28.0923C137.664 27.2401 136.5 26.0554 135.691 24.5384C134.881 23.0128 134.476 21.2443 134.476 19.233C134.476 17.2216 134.881 15.4574 135.691 13.9403C136.5 12.4148 137.664 11.2301 139.181 10.3864C140.698 9.53409 142.522 9.10795 144.652 9.10795C146.783 9.10795 148.607 9.53409 150.124 10.3864C151.641 11.2301 152.804 12.4148 153.614 13.9403C154.424 15.4574 154.828 17.2216 154.828 19.233C154.828 21.2443 154.424 23.0128 153.614 24.5384C152.804 26.0554 151.641 27.2401 150.124 28.0923C148.607 28.9361 146.783 29.358 144.652 29.358ZM144.703 24.142C145.3 24.142 145.816 23.9418 146.25 23.5412C146.685 23.1406 147.022 22.5696 147.26 21.8281C147.499 21.0866 147.618 20.2045 147.618 19.1818C147.618 18.1506 147.499 17.2685 147.26 16.5355C147.022 15.794 146.685 15.223 146.25 14.8224C145.816 14.4219 145.3 14.2216 144.703 14.2216C144.073 14.2216 143.532 14.4219 143.08 14.8224C142.628 15.223 142.283 15.794 142.044 16.5355C141.806 17.2685 141.686 18.1506 141.686 19.1818C141.686 20.2045 141.806 21.0866 142.044 21.8281C142.283 22.5696 142.628 23.1406 143.08 23.5412C143.532 23.9418 144.073 24.142 144.703 24.142Z" fill="black"/>
<path d="M0.6875 29V2.81818H11.9886C13.9318 2.81818 15.6321 3.2017 17.0895 3.96875C18.5469 4.73579 19.6804 5.81392 20.4901 7.20312C21.2997 8.59233 21.7045 10.2159 21.7045 12.0739C21.7045 13.9489 21.2869 15.5724 20.4517 16.9446C19.625 18.3168 18.4616 19.3736 16.9616 20.1151C15.4702 20.8565 13.7273 21.2273 11.733 21.2273H4.98295V15.7045H10.3011C11.1364 15.7045 11.848 15.5597 12.4361 15.2699C13.0327 14.9716 13.4886 14.5497 13.804 14.0043C14.1278 13.4588 14.2898 12.8153 14.2898 12.0739C14.2898 11.3239 14.1278 10.6847 13.804 10.1562C13.4886 9.61932 13.0327 9.21023 12.4361 8.92898C11.848 8.6392 11.1364 8.49432 10.3011 8.49432H7.79545V29H0.6875ZM33.4531 29.358C31.3224 29.358 29.4986 28.9361 27.9815 28.0923C26.4645 27.2401 25.3011 26.0554 24.4915 24.5384C23.6818 23.0128 23.277 21.2443 23.277 19.233C23.277 17.2216 23.6818 15.4574 24.4915 13.9403C25.3011 12.4148 26.4645 11.2301 27.9815 10.3864C29.4986 9.53409 31.3224 9.10795 33.4531 9.10795C35.5838 9.10795 37.4077 9.53409 38.9247 10.3864C40.4418 11.2301 41.6051 12.4148 42.4148 13.9403C43.2244 15.4574 43.6293 17.2216 43.6293 19.233C43.6293 21.2443 43.2244 23.0128 42.4148 24.5384C41.6051 26.0554 40.4418 27.2401 38.9247 28.0923C37.4077 28.9361 35.5838 29.358 33.4531 29.358ZM33.5043 24.142C34.1009 24.142 34.6165 23.9418 35.0511 23.5412C35.4858 23.1406 35.8224 22.5696 36.0611 21.8281C36.2997 21.0866 36.419 20.2045 36.419 19.1818C36.419 18.1506 36.2997 17.2685 36.0611 16.5355C35.8224 15.794 35.4858 15.223 35.0511 14.8224C34.6165 14.4219 34.1009 14.2216 33.5043 14.2216C32.8736 14.2216 32.3324 14.4219 31.8807 14.8224C31.429 15.223 31.0838 15.794 30.8452 16.5355C30.6065 17.2685 30.4872 18.1506 30.4872 19.1818C30.4872 20.2045 30.6065 21.0866 30.8452 21.8281C31.0838 22.5696 31.429 23.1406 31.8807 23.5412C32.3324 23.9418 32.8736 24.142 33.5043 24.142ZM46.4929 29V9.36364H53.3452V13.0966H53.5497C53.9077 11.7159 54.4744 10.706 55.25 10.0668C56.0341 9.42756 56.9503 9.10795 57.9986 9.10795C58.3054 9.10795 58.608 9.13352 58.9062 9.18466C59.2131 9.22727 59.5071 9.29119 59.7884 9.37642V15.3977C59.4389 15.2784 59.0085 15.1889 58.4972 15.1293C57.9858 15.0696 57.5469 15.0398 57.1804 15.0398C56.4901 15.0398 55.8679 15.1974 55.3139 15.5128C54.7685 15.8196 54.3381 16.2543 54.0227 16.8168C53.7074 17.3707 53.5497 18.0227 53.5497 18.7727V29H46.4929ZM74.6211 9.36364V14.4773H61.6836V9.36364H74.6211ZM64.1893 4.65909H71.2461V22.6847C71.2461 22.9574 71.293 23.1875 71.3867 23.375C71.4805 23.554 71.6254 23.6903 71.8214 23.7841C72.0174 23.8693 72.2688 23.9119 72.5756 23.9119C72.7887 23.9119 73.0359 23.8864 73.3171 23.8352C73.6069 23.7841 73.82 23.7415 73.9563 23.7074L74.979 28.6676C74.6637 28.7614 74.212 28.8764 73.6239 29.0128C73.0444 29.1491 72.354 29.2386 71.5529 29.2812C69.9336 29.3665 68.5742 29.2003 67.4748 28.7827C66.3754 28.3565 65.5487 27.6875 64.9947 26.7756C64.4407 25.8636 64.1722 24.7216 64.1893 23.3494V4.65909ZM89.2621 9.36364V14.4773H76.12V9.36364H89.2621ZM78.6257 29V8.80114C78.6257 7.18182 78.9155 5.83949 79.495 4.77415C80.0746 3.70881 80.8928 2.91193 81.9496 2.38352C83.0064 1.85511 84.2507 1.59091 85.6825 1.59091C86.5774 1.59091 87.4467 1.65909 88.2905 1.79545C89.1428 1.93182 89.7734 2.05114 90.1825 2.15341L89.1598 7.21591C88.9041 7.1392 88.6058 7.07954 88.2649 7.03693C87.924 6.98579 87.6257 6.96023 87.37 6.96023C86.7053 6.96023 86.2578 7.10085 86.0277 7.3821C85.7976 7.66335 85.6825 8.03409 85.6825 8.49432V29H78.6257ZM100.848 29.358C98.717 29.358 96.8931 28.9361 95.3761 28.0923C93.859 27.2401 92.6957 26.0554 91.886 24.5384C91.0763 23.0128 90.6715 21.2443 90.6715 19.233C90.6715 17.2216 91.0763 15.4574 91.886 13.9403C92.6957 12.4148 93.859 11.2301 95.3761 10.3864C96.8931 9.53409 98.717 9.10795 100.848 9.10795C102.978 9.10795 104.802 9.53409 106.319 10.3864C107.836 11.2301 109 12.4148 109.809 13.9403C110.619 15.4574 111.024 17.2216 111.024 19.233C111.024 21.2443 110.619 23.0128 109.809 24.5384C109 26.0554 107.836 27.2401 106.319 28.0923C104.802 28.9361 102.978 29.358 100.848 29.358ZM100.899 24.142C101.495 24.142 102.011 23.9418 102.446 23.5412C102.88 23.1406 103.217 22.5696 103.456 21.8281C103.694 21.0866 103.814 20.2045 103.814 19.1818C103.814 18.1506 103.694 17.2685 103.456 16.5355C103.217 15.794 102.88 15.223 102.446 14.8224C102.011 14.4219 101.495 14.2216 100.899 14.2216C100.268 14.2216 99.7269 14.4219 99.2752 14.8224C98.8235 15.223 98.4783 15.794 98.2397 16.5355C98.0011 17.2685 97.8817 18.1506 97.8817 19.1818C97.8817 20.2045 98.0011 21.0866 98.2397 21.8281C98.4783 22.5696 98.8235 23.1406 99.2752 23.5412C99.7269 23.9418 100.268 24.142 100.899 24.142ZM120.944 2.81818V29H113.887V2.81818H120.944ZM124.54 29V9.36364H131.597V29H124.54ZM128.068 7.31818C127.114 7.31818 126.295 7.00284 125.614 6.37216C124.932 5.74148 124.591 4.98295 124.591 4.09659C124.591 3.21023 124.932 2.4517 125.614 1.82102C126.295 1.19034 127.114 0.875 128.068 0.875C129.031 0.875 129.849 1.19034 130.523 1.82102C131.205 2.4517 131.545 3.21023 131.545 4.09659C131.545 4.98295 131.205 5.74148 130.523 6.37216C129.849 7.00284 129.031 7.31818 128.068 7.31818ZM144.652 29.358C142.522 29.358 140.698 28.9361 139.181 28.0923C137.664 27.2401 136.5 26.0554 135.691 24.5384C134.881 23.0128 134.476 21.2443 134.476 19.233C134.476 17.2216 134.881 15.4574 135.691 13.9403C136.5 12.4148 137.664 11.2301 139.181 10.3864C140.698 9.53409 142.522 9.10795 144.652 9.10795C146.783 9.10795 148.607 9.53409 150.124 10.3864C151.641 11.2301 152.804 12.4148 153.614 13.9403C154.424 15.4574 154.828 17.2216 154.828 19.233C154.828 21.2443 154.424 23.0128 153.614 24.5384C152.804 26.0554 151.641 27.2401 150.124 28.0923C148.607 28.9361 146.783 29.358 144.652 29.358ZM144.703 24.142C145.3 24.142 145.816 23.9418 146.25 23.5412C146.685 23.1406 147.022 22.5696 147.26 21.8281C147.499 21.0866 147.618 20.2045 147.618 19.1818C147.618 18.1506 147.499 17.2685 147.26 16.5355C147.022 15.794 146.685 15.223 146.25 14.8224C145.816 14.4219 145.3 14.2216 144.703 14.2216C144.073 14.2216 143.532 14.4219 143.08 14.8224C142.628 15.223 142.283 15.794 142.044 16.5355C141.806 17.2685 141.686 18.1506 141.686 19.1818C141.686 20.2045 141.806 21.0866 142.044 21.8281C142.283 22.5696 142.628 23.1406 143.08 23.5412C143.532 23.9418 144.073 24.142 144.703 24.142Z" fill="url(#paint0_angular_89_41)"/>
<defs>
<radialGradient id="paint0_angular_89_41" cx="0" cy="0" r="1" gradientUnits="userSpaceOnUse" gradientTransform="translate(156 16) rotate(175.355) scale(160.527 171.142)">
<stop/>
<stop offset="1" stop-color="#6C6C6C" stop-opacity="0.9"/>
</radialGradient>
</defs>
</svg>
