<svg width="35" height="35" viewBox="0 0 35 35" fill="none" xmlns="http://www.w3.org/2000/svg">
<rect x="1" y="1" width="33" height="33" stroke="black" stroke-width="2"/>
<path d="M17.8405 21.3487C14.3382 21.3487 11.1896 20.8216 8.93468 19.9858C7.80528 19.5671 6.92622 19.0806 6.33862 18.5656C5.75008 18.0499 5.50001 17.5495 5.50001 17.089C5.50001 16.6285 5.75008 16.1282 6.33862 15.6124C6.92622 15.0974 7.80528 14.6109 8.93468 14.1923C11.1896 13.3564 14.3382 12.8294 17.8405 12.8294C21.3428 12.8294 24.4913 13.3564 26.7463 14.1923C27.8757 14.6109 28.7548 15.0974 29.3424 15.6124C29.9309 16.1282 30.181 16.6285 30.181 17.089C30.181 17.5495 29.9309 18.0499 29.3424 18.5656C28.7548 19.0806 27.8757 19.5671 26.7463 19.9858C24.4913 20.8216 21.3428 21.3487 17.8405 21.3487Z" stroke="black"/>
<path d="M20.5155 15.3169C22.3104 18.3242 23.4715 21.298 23.9095 23.6626C24.1289 24.847 24.1616 25.8512 24.0206 26.6196C23.8793 27.3894 23.5779 27.8605 23.1824 28.0965C22.787 28.3326 22.2292 28.3743 21.4847 28.1332C20.7414 27.8926 19.8731 27.3871 18.9348 26.6319C17.0613 25.124 14.9951 22.6905 13.2001 19.6831C11.4052 16.6758 10.244 13.7021 9.80608 11.3374C9.58672 10.1531 9.55396 9.14887 9.69499 8.3804C9.83624 7.61068 10.1377 7.13952 10.5331 6.90351C10.9286 6.66749 11.4864 6.62579 12.2309 6.86681C12.9742 7.10745 13.8425 7.61294 14.7808 8.36817C16.6543 9.87607 18.7205 12.3096 20.5155 15.3169Z" stroke="black"/>
<path d="M21.611 19.6298C19.8598 22.6629 17.8291 25.1261 15.9778 26.661C15.0505 27.4298 14.1896 27.9478 13.4499 28.1992C12.7089 28.451 12.1506 28.4174 11.7518 28.1872C11.353 27.9569 11.0447 27.4902 10.8923 26.7226C10.7401 25.9562 10.7583 24.9517 10.9604 23.7643C11.3641 21.3935 12.4819 18.4032 14.233 15.3702C15.9842 12.3371 18.0149 9.87389 19.8663 8.33897C20.7935 7.5702 21.6544 7.05217 22.3941 6.80078C23.1351 6.54897 23.6934 6.58258 24.0922 6.81283C24.4911 7.04308 24.7993 7.50982 24.9517 8.27741C25.1039 9.04375 25.0857 10.0483 24.8836 11.2357C24.48 13.6065 23.3621 16.5968 21.611 19.6298Z" stroke="black"/>
<circle cx="17.494" cy="17.684" r="1.78486" fill="black"/>
</svg>
